<svg width="77" height="76" viewBox="0 0 77 76" fill="none" xmlns="http://www.w3.org/2000/svg">
<path d="M26.3267 61.0047C26.3272 61.3149 25.9773 61.5636 25.5356 61.5644C25.033 61.6117 24.6823 61.3642 24.6817 61.0075C24.6812 60.6973 25.0311 60.4486 25.4728 60.4478C25.9297 60.4006 26.3261 60.648 26.3267 61.0047ZM21.5885 60.3148C21.4824 60.6252 21.7876 60.9813 22.2447 61.0736C22.641 61.228 23.0977 61.0722 23.1886 60.7619C23.2794 60.4515 22.9894 60.0953 22.5322 59.9565C22.136 59.8486 21.6946 60.0045 21.5885 60.3148ZM28.3205 60.0398C27.8789 60.1491 27.5748 60.4443 27.6211 60.8009C27.6673 61.111 28.0637 61.312 28.5204 61.2026C28.962 61.0933 29.2661 60.7982 29.2199 60.4881C29.1737 60.1935 28.7621 59.9926 28.3205 60.0398ZM38.2429 0.594676C17.1164 0.630254 0.983068 16.9878 1.01929 38.498C1.04826 55.6969 11.7048 70.3965 26.8996 75.5507C28.8498 75.9041 29.5332 74.6778 29.5315 73.6697C29.5299 72.7082 29.4753 67.4044 29.4698 64.1476C29.4698 64.1476 18.8115 66.4919 16.5607 59.5479C16.5607 59.5479 14.8167 55.0378 12.3167 53.8789C12.3167 53.8789 8.82455 51.45 12.5564 51.4902C12.5564 51.4902 16.3496 51.794 18.4426 55.4815C21.7884 61.4621 27.3756 59.7313 29.552 58.704C29.8981 56.2221 30.8853 54.499 31.9803 53.4736C23.4641 52.5264 14.8713 51.2847 14.8462 36.3656C14.839 32.1008 15.993 29.9587 18.4255 27.2251C18.0277 26.2177 16.726 22.0636 18.8038 16.6942C21.9855 15.6808 29.3207 20.8638 29.3207 20.8638C32.3656 19.9902 35.6397 19.5349 38.884 19.5294C42.1284 19.524 45.404 19.9682 48.4518 20.8315C48.4518 20.8315 55.7695 15.6084 58.9546 16.6266C61.0504 22.0045 59.7627 26.1474 59.3684 27.1561C61.8101 29.897 63.3064 32.0347 63.3136 36.284C63.3388 51.2496 54.3693 52.4588 45.8564 53.4502C47.2598 54.673 48.4518 56.9973 48.4579 60.6418C48.4667 65.8681 48.4319 72.3352 48.434 73.6069C48.4357 74.6149 49.1385 75.8389 51.0723 75.479C66.2954 70.3045 76.5977 55.5696 76.5687 38.3708C76.5325 16.8606 59.3693 0.559097 38.2429 0.594676ZM15.8509 54.1211C15.6531 54.2765 15.6994 54.6331 15.9589 54.9274C16.203 55.1751 16.5535 55.283 16.7512 55.0811C16.9489 54.9257 16.9026 54.5691 16.6432 54.2748C16.3991 54.0271 16.0486 53.9191 15.8509 54.1211ZM14.2038 52.8677C14.0975 53.0695 14.2502 53.3173 14.5551 53.4719C14.7991 53.6266 15.1036 53.5796 15.2099 53.3623C15.3162 53.1605 15.1634 52.9126 14.8585 52.758C14.5537 52.6655 14.3101 52.7124 14.2038 52.8677ZM19.1481 58.3804C18.9048 58.5824 18.9969 59.0475 19.3478 59.3416C19.6987 59.6977 20.1405 59.7434 20.3381 59.495C20.5358 59.293 20.4436 58.8279 20.1385 58.5338C19.8028 58.1777 19.3457 58.1319 19.1481 58.3804ZM17.4079 56.1036C17.1644 56.259 17.1651 56.6623 17.4094 57.0186C17.6537 57.3748 18.0652 57.5292 18.263 57.3738C18.5064 57.1718 18.5057 56.7686 18.2614 56.4123C18.0475 56.056 17.6512 55.9015 17.4079 56.1036Z" fill="black"/>
</svg>
