<svg width="53" height="53" viewBox="0 0 53 53" fill="none" xmlns="http://www.w3.org/2000/svg">
<path d="M11.9495 52.8946L1.16884 52.9128L1.1101 18.0366L11.8908 18.0184L11.9495 52.8946ZM6.48664 13.2701C3.03932 13.2759 0.238334 10.4121 0.232502 6.949C0.2297 5.28553 0.884806 3.68908 2.0537 2.51086C3.2226 1.33264 4.80954 0.669154 6.46541 0.666365C8.12128 0.663577 9.71045 1.32171 10.8833 2.49599C12.0562 3.67027 12.7166 5.2645 12.7194 6.92797C12.7253 10.3911 9.93279 13.2643 6.48664 13.2701ZM52.2982 52.8267L41.5407 52.8448L41.5122 35.8673C41.5053 31.8211 41.4153 26.6324 35.8915 26.6417C30.2864 26.6511 29.4349 31.0485 29.4426 35.5961L29.4717 52.8651L18.7026 52.8833L18.6438 18.0071L28.9835 17.9896L28.9915 22.7471L29.1424 22.7468C30.577 20.0042 34.088 17.1065 39.3332 17.0977C50.2439 17.0793 52.2618 24.2937 52.2776 33.6687L52.3098 52.8267L52.2982 52.8267Z" fill="black"/>
</svg>
