<svg width="50" height="51" viewBox="0 0 50 51" fill="none" xmlns="http://www.w3.org/2000/svg">
<path d="M48.5081 17.158C48.8837 16.7537 49.4439 17.1304 49.445 17.7684L49.4899 44.396C49.4957 47.8465 47.4261 50.6495 44.8693 50.6538L4.73356 50.7214C2.17684 50.7257 0.0978002 47.9297 0.0919892 44.4792L0.047168 17.8646C0.0460716 17.2136 0.595395 16.8481 0.981995 17.2511C3.14697 19.5131 6.01728 22.3858 15.8745 32.0177C17.9136 34.0195 21.3554 38.2324 24.7804 38.2006C28.2248 38.2339 31.7198 33.9181 33.6751 31.9877C43.4998 22.3227 46.3508 19.4273 48.5081 17.158ZM24.7734 34.0209C27.0118 34.0693 30.2278 30.2097 31.8459 28.6184C44.6278 16.0578 45.6004 14.9624 48.5474 11.8324C49.106 11.2456 49.4325 10.3335 49.4309 9.37L49.4267 6.89605C49.4209 3.44553 47.3418 0.649551 44.7851 0.653857L4.64936 0.721449C2.09263 0.725755 0.0230251 3.52872 0.0288361 6.97924L0.0330024 9.45319C0.0346251 10.4167 0.364171 11.3146 0.924765 11.9126C3.8823 15.0196 4.85861 16.1248 17.6827 28.6422C19.3062 30.2281 22.5351 34.0768 24.7734 34.0209Z" fill="black"/>
</svg>
